# Blender 3.4.1
# www.blender.org
o Cube
v 3.463624 -2.092575 -4.268879
v 2.973453 -2.744838 -4.268879
v 3.463624 -2.092575 4.268879
v 2.973453 -2.744838 4.268879
v -2.973453 2.744838 -4.268879
v -3.463624 2.092575 -4.268879
v -2.973453 2.744838 4.268879
v -3.463624 2.092575 4.268879
vn 0.6008 0.7994 -0.0000
vn -0.0000 -0.0000 1.0000
vn -0.7994 0.6008 -0.0000
vn -0.6008 -0.7994 -0.0000
vn 0.7994 -0.6008 -0.0000
vn -0.0000 -0.0000 -1.0000
vt 0.625000 0.500000
vt 0.375000 0.500000
vt 0.625000 0.750000
vt 0.375000 0.750000
vt 0.875000 0.500000
vt 0.625000 0.250000
vt 0.125000 0.500000
vt 0.375000 0.250000
vt 0.875000 0.750000
vt 0.625000 1.000000
vt 0.625000 0.000000
vt 0.375000 0.000000
vt 0.375000 1.000000
vt 0.125000 0.750000
s 0
f 5/5/1 3/3/1 1/1/1
f 3/3/2 8/13/2 4/4/2
f 7/11/3 6/8/3 8/12/3
f 2/2/4 8/14/4 6/7/4
f 1/1/5 4/4/5 2/2/5
f 5/6/6 2/2/6 6/8/6
f 5/5/1 7/9/1 3/3/1
f 3/3/2 7/10/2 8/13/2
f 7/11/3 5/6/3 6/8/3
f 2/2/4 4/4/4 8/14/4
f 1/1/5 3/3/5 4/4/5
f 5/6/6 1/1/6 2/2/6
o Cube.001
v -5.281632 -4.166121 -6.811811
v -5.285143 -3.350163 -6.811811
v -5.281632 -4.166121 6.169226
v -5.285143 -3.350163 6.169226
v 17.225260 -4.069260 -6.811811
v 17.221748 -3.253302 -6.811811
v 17.225260 -4.069260 6.169226
v 17.221748 -3.253302 6.169226
vn 0.0043 -1.0000 -0.0000
vn -0.0000 -0.0000 1.0000
vn 1.0000 0.0043 -0.0000
vn -0.0043 1.0000 -0.0000
vn -1.0000 -0.0043 -0.0000
vn -0.0000 -0.0000 -1.0000
vt 0.625000 0.500000
vt 0.375000 0.500000
vt 0.625000 0.750000
vt 0.375000 0.750000
vt 0.875000 0.500000
vt 0.625000 0.250000
vt 0.125000 0.500000
vt 0.375000 0.250000
vt 0.875000 0.750000
vt 0.625000 1.000000
vt 0.625000 0.000000
vt 0.375000 0.000000
vt 0.375000 1.000000
vt 0.125000 0.750000
s 0
f 13/19/7 11/17/7 9/15/7
f 11/17/8 16/27/8 12/18/8
f 15/25/9 14/22/9 16/26/9
f 10/16/10 16/28/10 14/21/10
f 9/15/11 12/18/11 10/16/11
f 13/20/12 10/16/12 14/22/12
f 13/19/7 15/23/7 11/17/7
f 11/17/8 15/24/8 16/27/8
f 15/25/9 13/20/9 14/22/9
f 10/16/10 12/18/10 16/28/10
f 9/15/11 11/17/11 12/18/11
f 13/20/12 9/15/12 10/16/12
